<svg width="51" height="58" viewBox="0 0 51 58" fill="none" xmlns="http://www.w3.org/2000/svg">
<path d="M17.0174 24.1035C26.322 24.0372 33.9186 31.5265 33.9848 40.8311C34.0511 50.1357 26.5618 57.7323 17.2572 57.7985C7.95257 57.8648 0.355983 50.3756 0.289758 41.0709C0.223534 31.7663 7.71275 24.1697 17.0174 24.1035Z" fill="white"/>
<path d="M16.8475 0.240103C26.1522 0.173879 33.7488 7.66309 33.815 16.9677C33.8812 26.2724 26.392 33.869 17.0874 33.9352C7.78272 34.0014 0.186139 26.5122 0.119915 17.2076C0.0536906 7.90291 7.5429 0.306328 16.8475 0.240103Z" fill="white"/>
<path d="M33.8277 12.0515C43.1324 11.9853 50.7289 19.4745 50.7952 28.7792C50.8614 38.0838 43.3722 45.6804 34.0675 45.7466C24.7629 45.8128 17.1663 38.3236 17.1001 29.019C17.0339 19.7143 24.5231 12.1178 33.8277 12.0515Z" fill="white"/>
</svg>
