<svg width="39" height="45" viewBox="0 0 39 45" fill="none" xmlns="http://www.w3.org/2000/svg">
<path d="M13.0265 18.451C20.149 18.4003 25.9641 24.1332 26.0148 31.2557C26.0655 38.3783 20.3326 44.1934 13.21 44.2441C6.08747 44.2948 0.272381 38.5619 0.221687 31.4393C0.170994 24.3167 5.90389 18.5016 13.0265 18.451Z" fill="#5E4A4A"/>
<path d="M12.8964 0.183865C20.019 0.133171 25.8341 5.86607 25.8848 12.9886C25.9355 20.1112 20.2026 25.9263 13.08 25.977C5.95745 26.0277 0.142368 20.2948 0.0916744 13.1722C0.0409806 6.04964 5.77387 0.234559 12.8964 0.183865Z" fill="#5E4A4A"/>
<path d="M25.8946 9.22536C33.0171 9.17467 38.8322 14.9076 38.8829 22.0301C38.9336 29.1527 33.2007 34.9678 26.0781 35.0185C18.9556 35.0692 13.1405 29.3363 13.0898 22.2137C13.0391 15.0911 18.772 9.27605 25.8946 9.22536Z" fill="#5E4A4A"/>
</svg>
